<?xml version="1.0" encoding="UTF-8"?>
<!DOCTYPE svg PUBLIC "-//W3C//DTD SVG 1.1//EN" "http://www.w3.org/Graphics/SVG/1.1/DTD/svg11.dtd">
<!-- Creator: CorelDRAW 2020 (64-Bit) -->
<svg xmlns="http://www.w3.org/2000/svg" xml:space="preserve" width="343.755mm" height="344.303mm" version="1.1" style="shape-rendering:geometricPrecision; text-rendering:geometricPrecision; image-rendering:optimizeQuality; fill-rule:evenodd; clip-rule:evenodd"
viewBox="0 0 9853.13 9868.83"
 xmlns:xlink="http://www.w3.org/1999/xlink"
 xmlns:xodm="http://www.corel.com/coreldraw/odm/2003">
 <defs>
  <style type="text/css">
   <![CDATA[
    .fil0 {fill:#FFF212}
    .fil1 {fill:#A8518A}
    .fil3 {fill:#00A859}
    .fil2 {fill:#4376BB}
   ]]>
  </style>
 </defs>
 <g id="Capa_x0020_1">
  <metadata id="CorelCorpID_0Corel-Layer"/>
  <path class="fil0" d="M1323.86 4820.51c0,865.51 197.22,1501.87 675.1,2193.77l643.47 683.61c270.25,209.96 495.2,378.49 830.91,515.71 999.23,408.46 1879.1,428.12 2888.71,25.25 328.82,-131.23 778.01,-423.08 1046.2,-671.21 462.88,-428.28 795.6,-962.96 992.86,-1563.75 38.55,-117.4 79.63,-218.8 38.67,-335.8 -34.94,-99.83 -125.62,-184.03 -246.24,-184.03 -248.34,0 -270.56,177.95 -329.15,353.91 -113.72,341.57 -165.02,433.84 -335.2,718.67 -455.6,762.47 -1520.57,1405.96 -2458.22,1405.96 -569.56,0 -921.7,-56.73 -1404.95,-273.44 -337.95,-151.55 -816.39,-502.82 -1037.51,-777.48 -392.71,-487.75 -738.67,-1140.92 -738.67,-1817.94 0,-653.77 35.5,-986.88 325.26,-1567.8 97.48,-195.45 179.41,-314.95 301.94,-478.7 119.09,-159.18 232.35,-269.2 372.61,-408.03 381.33,-377.43 1038.26,-667.38 1587.24,-754.69 88.83,-14.13 276.13,-26.45 335.54,-54.79 224.87,-107.24 213.92,-431.94 -23.08,-514.65 -113.49,-39.6 -262.99,-4.27 -398.43,15.08 -629.92,90.01 -1146.92,344.05 -1642.48,699.46 -92.9,66.64 -167.37,148.91 -253.61,214.77 -287.51,219.57 -643.97,761.97 -800.17,1073.38 -187.96,374.75 -370.8,942.76 -370.8,1502.75z"/>
  <path class="fil1" d="M5571.65 683.1c-122.92,-70.24 -689.39,-59.18 -858.63,-50.73 -288.3,14.38 -569.78,58.94 -834.36,126.14 -672.35,170.77 -752.44,304.67 -1024.67,402.18 -147.3,52.76 -277.51,-45.17 -272.79,-182.99 9.08,-264.94 1038.98,-554.19 1276.7,-611.26 266.68,-64.01 556.82,-104.17 842.25,-119.52 341.18,-18.34 626.29,37.49 936.77,36.95 -106.56,-266.34 -290.96,-284.46 -546.43,-283.85 -1190.39,2.82 -2161.91,302.25 -3097.56,1000.86l-547.73 467.11c-677.22,724.45 -1141.76,1555.68 -1349.58,2553.64 -209.61,1006.62 -53.09,2035.3 260.77,2820.21 87.83,219.65 140.45,376.24 381.14,439.06 275.71,71.95 654.23,-185.82 477.71,-614.85 -43.42,-105.55 -76.68,-186.37 -117.42,-292.42 -551.5,-1435.92 -137.4,-3190.08 962.76,-4290.26 756.79,-756.78 1783.71,-1225.98 2873.74,-1224.64 298.33,0.36 546.25,28.53 637.31,-175.64z"/>
  <path class="fil2" d="M5571.65 683.1c103.35,2.02 319.24,54.21 416.84,77.8 1022.73,247.11 2090.98,974.84 2621.19,1867.52 434.64,731.76 676.77,1377.31 676.77,2338.92 99.5,168.54 -133.34,1156.32 -198.56,1354.16 -315.13,955.87 -905.52,1738.13 -1730.97,2287.72 -88.58,58.97 -186.57,100.64 -217.22,191.73 -41.18,122.36 31.11,223.74 125.71,246.58 206.56,49.85 772.06,-475.38 949.11,-634.48 713.35,-640.98 1234.09,-1650.16 1403.71,-2632.74 21.47,-124.4 63.15,-695.02 78.07,-734.91 0,-767.24 -133.61,-1316.18 -351.25,-1864.28 -54.02,-136.06 -110.47,-236.39 -170.04,-376.42 -82.44,-193.79 -292.63,-500.89 -421.04,-671.85 -40.68,-54.17 -74.11,-105.47 -117.3,-155.93 -25.66,-29.98 -40.93,-39.97 -66.46,-70.15 -32.87,-38.84 -32.35,-47.44 -69.03,-87.09 -740.64,-800.71 -1557.62,-1264.8 -2622.25,-1495.65 -75.2,-16.3 -180.65,-22.38 -241.98,-40.15 -310.48,0.54 -595.59,-55.3 -936.77,-36.95 -285.43,15.35 -575.57,55.51 -842.25,119.52 -237.72,57.07 -1267.62,346.32 -1276.7,611.26 -4.72,137.82 125.48,235.76 272.79,182.99 272.24,-97.51 352.32,-231.41 1024.67,-402.18 264.58,-67.2 546.06,-111.76 834.36,-126.14 169.24,-8.45 735.71,-19.51 858.63,50.73z"/>
  <path class="fil1" d="M9696.27 5045.4c-14.91,39.88 -56.59,610.5 -78.07,734.91 -169.62,982.58 -690.35,1991.76 -1403.71,2632.74 -177.05,159.1 -742.55,684.33 -949.11,634.48 -94.59,-22.84 -166.88,-124.21 -125.71,-246.58 30.66,-91.1 128.65,-132.77 217.22,-191.73 825.45,-549.59 1415.84,-1331.85 1730.97,-2287.72 65.22,-197.84 298.05,-1185.62 198.56,-1354.16 -353.35,172.93 -265.11,357.2 -300.72,606.32 -14.46,101.17 -21.17,175.66 -36.49,275.77 -62.05,405.76 -276.15,993.65 -501.95,1332.57 -258.24,387.58 -477.54,690.08 -877.91,995.62 -591.03,451.06 -1404.66,822.58 -2264.15,819.39 -262.31,-0.97 -367.67,-27.58 -536,88.52 -105.03,72.44 -203.88,255.79 -155.35,446.46 42.29,166.09 148.68,268.6 312.21,312.43 261.45,70.08 932.53,-29.57 1143.15,-63.87 630.75,-102.71 1247.41,-389.77 1753.57,-724.98 997.67,-660.68 1751.98,-1812.66 1962.87,-2994.21 28.9,-161.89 66.96,-386.6 67.4,-557.12 0.38,-141.98 2.87,-406.08 -156.81,-458.83z"/>
  <path class="fil3" d="M3294.99 4020.35c34.13,-50.97 110.92,-162.04 156.13,-195.17 181.89,121.8 1179.39,995.42 1284.69,989.18 66.16,-3.93 126.4,-71.92 276.59,-71.92 544.78,0 577.34,858.4 -1.59,875.15 -233.26,6.75 -447.28,-198.83 -447.28,-426.27 0,-41.23 57.21,-92.89 -65.93,-187.73l-866.35 -694.99c-90.34,-73.92 -280.94,-205.64 -336.26,-288.25zm2361.45 917.26c-91.3,-172.55 -140.71,-269.71 -331.77,-370.81l1678.39 -1580.8 351.28 370.81c-126.47,84.68 -579.21,548.95 -736.88,687.8 -47.85,42.13 -68.98,49.5 -117.34,97.34l-843.68 795.67zm-2224.83 -1405.16c-119.88,0 -284.99,269.02 -359.79,362.3 -178.21,222.23 -94.24,203.2 404.95,607.36 182.38,147.67 347.24,278.07 532.09,424.2l258.88 209.5c66.49,67.61 32.16,71.03 53.37,180.83 14.72,76.16 37.04,134.55 67,186.71 249.33,434.13 786.88,467.19 1059.11,200.84 333.82,-326.6 130.33,-346.01 300.1,-500.07l1582.62 -1500.92c109.6,-109.62 317.14,-258.44 317.14,-346.4 0,-121.99 -224.38,-281.23 -292.74,-370.81 -349.28,-457.7 -404.07,-308.55 -570.84,-141.49l-508.3 487.03c-280.95,234.85 -764.2,728.09 -1033.23,976.92 -45.41,41.99 -63.25,45.03 -107.67,87.49 -166.96,159.54 -86.92,59.33 -298.33,113.15 -155.35,39.55 -279.85,-112.67 -482.61,-278.56l-325.26 -260.23c-52.41,-40.92 -66.98,-58.45 -116.82,-97.85 -83.31,-65.87 -148.43,-117.51 -228.52,-181.32 -97.82,-77.94 -164.63,-158.69 -251.14,-158.69z"/>
 </g>
</svg>
