<?xml version="1.0" encoding="UTF-8"?>
<!DOCTYPE svg PUBLIC "-//W3C//DTD SVG 1.1//EN" "http://www.w3.org/Graphics/SVG/1.1/DTD/svg11.dtd">
<!-- Creator: CorelDRAW 2020 (64-Bit) -->
<svg xmlns="http://www.w3.org/2000/svg" xml:space="preserve" width="371.366mm" height="299.352mm" version="1.1" style="shape-rendering:geometricPrecision; text-rendering:geometricPrecision; image-rendering:optimizeQuality; fill-rule:evenodd; clip-rule:evenodd"
viewBox="0 0 17540.49 14139.12"
 xmlns:xlink="http://www.w3.org/1999/xlink"
 xmlns:xodm="http://www.corel.com/coreldraw/odm/2003">
 <defs>
  <style type="text/css">
   <![CDATA[
    .fil0 {fill:#00AFEF}
   ]]>
  </style>
 </defs>
 <g id="Capa_x0020_1">
  <metadata id="CorelCorpID_0Corel-Layer"/>
  <path class="fil0" d="M5045.89 817.72c0,-150.98 415.46,-258.82 540.56,-300.43 597.27,-198.62 1396.95,-148.06 2022.93,-52.48 96.89,14.8 331.01,33.73 440.73,39.83 360.46,20.02 757.73,65.69 1106.86,-21.04 89.95,-22.35 110.27,-30.59 206.65,-57.67 348.16,-97.81 340.13,-88.79 680.11,-88.79 230.06,0 459.68,423.34 974.86,731.12l770.53 310.74c164.45,44.21 321.51,70.8 489.21,159.54 -177.53,265.12 -672.78,297.74 -672.78,504.59 0,165.85 421.79,1032.09 553,1297.17l261.32 651.74c42.38,116.53 74.91,216.47 116.52,340.01 37.81,112.24 99.52,250.13 102.37,378.19 -160.29,0 -799.74,-170.68 -945.04,-208.3 -707.67,-183.25 -1478.55,-483.03 -2161.34,-770.09 -623.23,-262.02 -611.58,-189.08 -888.9,347.04 -57.07,110.32 -74.47,87.45 -185.79,126.56 -103.11,36.23 -114.41,55.23 -195.64,116.74 -361.09,273.44 -343.97,432.07 -525.01,436.11 0,-985.02 396.34,-1156.5 156.85,-1430.34 -163.3,-186.74 -936.52,-367.23 -1190.15,-443.76 -368.96,-111.34 -670.77,-262.73 -971.12,-470.56l-192.5 -169.81c-22.06,-52.14 -7.34,-67.69 10.35,-104.59 177.86,47.5 794.08,848.04 1636.21,-141.86 117.17,-137.72 418.58,-583.43 430.21,-723.15 -102.44,54.2 -159.86,161.51 -224.49,256.08l-50.02 70.12c-103.99,145.31 -180.7,262.3 -307.92,388.9l-123.04 117.24c-487.38,421.93 -994.41,302.96 -1357.64,-210.91l-233.85 -342.82c-116.54,-176.48 -274.05,-516.64 -274.05,-735.14zm3436.02 -576.67c-460.46,0 -1071.93,-122.57 -1634.46,-119.59 -192.42,1.02 -332.74,-32.01 -552.88,-25.36 -119.01,3.59 -120.07,22.44 -238.78,25.53 -410.15,10.66 -1418.37,54.84 -1418.37,575.96 0,321.12 5.07,648.8 135.32,945.95 299.19,682.56 943.59,1122.9 1608.35,1419.18 30.62,13.65 38.22,13.64 68.77,27.34 79.27,35.55 160.16,77.49 242.2,118.22l900.81 516.85c-66.67,286.19 -220.29,863.23 -60.81,1166.1 130.71,248.23 420.51,71.38 568.8,-57.41 26.28,-22.81 26.68,-27.24 47.62,-48.48l23.85 -24.21c106.84,-103.13 329.54,-297.55 405.68,-411.27 236.31,19.67 341.79,84.04 456.54,-408.48 179.76,0 929.09,334.79 1200.73,433.18 693.82,251.3 1786.75,634.83 2523.62,696.14 3.97,178.31 216.25,836.77 216.25,1874.19 0,774.31 -115.21,1484.44 -400.49,2146.49 -175.13,406.42 -332.02,797.23 -591.52,1162.52 -60.72,85.48 -99.96,172.62 -157.82,250.66l-547.09 654.32c-3.26,3.75 -7.82,9.2 -11.09,12.95 -3.25,3.74 -7.86,9.16 -11.15,12.88l-314.31 310.42c-22.3,20.75 -27.66,24.14 -50.55,45.57 -200.54,187.81 -419.27,384.06 -653.72,523.65 -80.1,47.69 -147.06,95.37 -232.1,152.36 -95.11,63.74 -158.88,96.17 -254.53,153.94 -88.12,53.23 -155.52,83.95 -251.95,132.51 -274.51,138.23 -542.17,264.82 -836.09,365.31 -644.64,220.41 -1356.17,347.76 -2031.02,347.76 -378.83,0 -725.05,-45.56 -1098.85,-102.55 -40.04,-6.1 -117.4,-28.43 -157.33,-34.89 -668.14,-108.24 -1343.42,-368.43 -1943.83,-675.24 -380.17,-194.27 -759.13,-436.83 -1070.75,-731.35 -122.36,-115.64 -259.91,-222.03 -368.82,-352.02l-32.43 -39.64c-3.23,-3.78 -7.79,-9.23 -11.07,-12.96 -22.88,-25.99 -22.3,-24.79 -47,-49.11l-48.85 -47.26c-699.44,-724.66 -1276.19,-1932.03 -1494.65,-2950.54 -285.46,-1330.8 -205.07,-2319.02 239.49,-3561.48 34.99,-97.79 72.11,-174.37 119.62,-264.83l570.12 -895.59 340.94 -379.9c43.7,-39.73 46.91,-35.46 89.57,-78.63 335.82,-339.8 272.32,-38.22 459.28,-213.5 72.84,-68.29 41.26,-126.33 109.64,-202.72l175.01 -137.37c207.26,-168.1 415,-321.89 653.55,-451.74 153.32,-83.45 273.32,-179.69 464.8,-183.96 0,301.09 -242.93,541.58 -438.29,739.08 -72.85,73.64 -125.69,147 -258.52,149.96 13.85,-166.46 88.62,-249.17 120.14,-384.45l72.09 0 40.82 151.41c1.4,3.82 3.97,11.64 7.23,16.8 195.58,-839.51 -494.8,-96.22 -360.42,480.56 124.27,0 135.86,0.42 213.31,-51l533.04 -620.32c36.47,-61.06 73.11,-106.43 111.19,-177.15 121.78,-226.21 99.76,-235.21 55.54,-425.02 -428.98,0 -657.27,197.91 -980.37,413.26 -140.93,93.95 -277.43,182.38 -405.72,291.74 -134.03,114.25 -50.57,66.12 -223.78,63.68 -239.51,-3.36 -181.02,182.78 -168.22,336.62 -124.07,33.13 -226.04,172.23 -323.36,253.31l-26.53 21.53c-391.95,332.91 -783.92,890.88 -1004.01,1350.74 -322.25,673.3 -544.32,1565.59 -544.32,2531.28 0,261.14 11.48,561.49 51.65,789.33 97.13,550.88 109.25,816.11 293.21,1388.75 321.53,1000.9 815.94,1909.95 1492.11,2712.8 648.51,770 1491.79,1400.17 2429.73,1775.18 107.38,42.94 185.93,73.89 291.66,116.82 338.46,137.46 643.03,204.57 1009.41,264.07 51.45,8.36 118.12,31.57 178.17,38.09 73.7,8 127.45,6.48 199.6,16.65 721.06,101.63 1399.13,13.83 2104.11,-109.24 893.73,-156.03 1943.33,-637.3 2670.59,-1173.9l841.48 -672.29c464.8,-405.54 817.2,-900.85 1173.31,-1397.69l247.98 -400.78c288.7,-582.85 439.54,-837.18 630.49,-1508.01 316.35,-1111.32 339.88,-2369.57 56.42,-3495.69 -24.29,-96.51 -43.46,-78.94 -46.03,-194.25 215.37,4.79 1154.51,197.9 1396.72,261.21 574.32,150.12 1126.27,341.92 1681.69,528.9 188.25,63.38 356.47,143.97 549.83,98.93 81.71,-170.29 -28.57,-405.85 -96.36,-576.43 -205.2,-516.35 -244.28,-755.45 55.9,-1314.19 78.79,-146.68 328.79,-481.46 328.79,-632.33 0,-127.14 -876.81,175.11 -916.12,189.18 -357.8,127.93 -698.89,290.95 -1033.85,455.89 -494.96,243.73 -984.88,450.72 -1533.58,580.89 -73.76,17.49 -466.88,70.58 -524.06,59.49 -125.76,-24.42 -158.43,-306.42 -193.42,-400.29 -133.37,-357.85 -280.98,-698.26 -460.42,-1029.32 -38.35,-70.76 -69.27,-121.81 -112.55,-199.81 -39.45,-71.08 -68.3,-106.49 -111.1,-177.23 -190.18,-314.39 -439.13,-594.45 -641.36,-896.44l173.9 -90.41c414.15,-242.81 685.23,-561.35 56.37,-812.66 -5.41,-2.16 -11.6,-4.86 -17.02,-7 -395.15,-156.59 -881.51,-190.58 -1199.12,-482.85l-137.59 -126.72c-173.47,-175.36 -386.56,-338.53 -609.78,-447.46 -332.2,-162.12 -688.12,-139.04 -1033.36,-78.66 -109.43,19.13 -147.6,32.36 -254.55,57.8l-378.25 102.31c-60.11,17.53 -62.79,35.47 -132.72,35.47z"/>
  <path class="fil0" d="M5766.74 865.77c0,137.37 -13.44,288.33 264.31,288.33 388.26,0 227.78,-480.56 24.02,-480.56 -93.34,0 -288.33,-30.72 -288.33,192.23z"/>
 </g>
</svg>
